<svg width="19" height="19" viewBox="0 0 19 19" fill="none" xmlns="http://www.w3.org/2000/svg">
<path d="M6.87906 16.0312H3.5625C3.40503 16.0312 3.25401 15.9686 3.14266 15.8573C3.03131 15.7459 2.96875 15.5949 2.96875 15.4374V12.1208C2.96875 12.0429 2.98411 11.9657 3.01395 11.8936C3.04379 11.8216 3.08752 11.7561 3.14266 11.701L12.0489 2.79475C12.1603 2.6834 12.3113 2.62085 12.4688 2.62085C12.6262 2.62085 12.7772 2.6834 12.8886 2.79475L16.2052 6.11132C16.3165 6.22267 16.3791 6.37369 16.3791 6.53116C16.3791 6.68863 16.3165 6.83966 16.2052 6.951L7.29891 15.8573C7.24377 15.9124 7.17832 15.9561 7.10628 15.986C7.03424 16.0158 6.95703 16.0312 6.87906 16.0312Z" stroke="black" stroke-linecap="round" stroke-linejoin="round"/>
<path d="M10.0938 4.75L14.25 8.90625" stroke="black" stroke-linecap="round" stroke-linejoin="round"/>
<path d="M7.08714 15.9934L3.00659 11.9128" stroke="black" stroke-linecap="round" stroke-linejoin="round"/>
</svg>
